<?xml version="1.0" encoding="UTF-8" standalone="no"?>
<!-- Created with Inkscape (http://www.inkscape.org/) -->

<svg
   xmlns:dc="http://purl.org/dc/elements/1.1/"
   xmlns:cc="http://creativecommons.org/ns#"
   xmlns:rdf="http://www.w3.org/1999/02/22-rdf-syntax-ns#"
   xmlns:svg="http://www.w3.org/2000/svg"
   xmlns="http://www.w3.org/2000/svg"
   xmlns:sodipodi="http://sodipodi.sourceforge.net/DTD/sodipodi-0.dtd"
   xmlns:inkscape="http://www.inkscape.org/namespaces/inkscape"
   width="83.294136mm"
   height="16.255341mm"
   viewBox="0 0 83.294136 16.255341"
   version="1.1"
   id="svg8"
   inkscape:version="0.92.4 (fd57863, 2020-04-02)"
   sodipodi:docname="header-black.svg">
  <defs
     id="defs2" />
  <sodipodi:namedview
     id="base"
     pagecolor="#ffffff"
     bordercolor="#666666"
     borderopacity="1.0"
     inkscape:pageopacity="0.0"
     inkscape:pageshadow="2"
     inkscape:zoom="1.979899"
     inkscape:cx="181.05247"
     inkscape:cy="37.596781"
     inkscape:document-units="mm"
     inkscape:current-layer="layer2"
     showgrid="false"
     inkscape:window-width="1920"
     inkscape:window-height="954"
     inkscape:window-x="0"
     inkscape:window-y="27"
     inkscape:window-maximized="1"
     fit-margin-top="0"
     fit-margin-left="0"
     fit-margin-right="0"
     fit-margin-bottom="0" />
  <metadata
     id="metadata5">
    <rdf:RDF>
      <cc:Work
         rdf:about="">
        <dc:format>image/svg+xml</dc:format>
        <dc:type
           rdf:resource="http://purl.org/dc/dcmitype/StillImage" />
        <dc:title></dc:title>
      </cc:Work>
    </rdf:RDF>
  </metadata>
  <g
     inkscape:groupmode="layer"
     id="layer3"
     inkscape:label="Layer 3"
     transform="translate(-9.4793579,-16.173103)" />
  <g
     inkscape:groupmode="layer"
     id="layer2"
     inkscape:label="Layer 2"
     style="opacity:1"
     transform="translate(-9.4793579,-16.173103)">
    <g
       aria-label="FilmJunkie"
       transform="matrix(0.26458333,0,0,0.26458333,1.0137248,5.2631752)"
       style="font-style:normal;font-weight:normal;font-size:40px;line-height:1.25;font-family:sans-serif;letter-spacing:0px;word-spacing:0px;fill:#333333;fill-opacity:1;stroke:none"
       id="flowRoot3725">
      <path
         d="m 31.996094,43.203125 h 26.8125 v 5.3125 h -20.5 v 13.75 h 18.5 v 5.3125 h -18.5 v 22.28125 h -6.3125 z"
         style="font-style:normal;font-variant:normal;font-weight:normal;font-stretch:normal;font-size:64px;font-family:Calibri;-inkscape-font-specification:Calibri;fill:#333333"
         id="path3855"
         inkscape:connector-curvature="0" />
      <path
         d="m 63.996094,54.859375 h 5.75 v 35 h -5.75 z m 0,-13.625 h 5.75 v 7.28125 h -5.75 z"
         style="font-style:normal;font-variant:normal;font-weight:normal;font-stretch:normal;font-size:64px;font-family:Calibri;-inkscape-font-specification:Calibri;fill:#333333"
         id="path3857"
         inkscape:connector-curvature="0" />
      <path
         d="m 81.746094,41.234375 h 5.75 v 48.625 h -5.75 z"
         style="font-style:normal;font-variant:normal;font-weight:normal;font-stretch:normal;font-size:64px;font-family:Calibri;-inkscape-font-specification:Calibri;fill:#333333"
         id="path3859"
         inkscape:connector-curvature="0" />
      <path
         d="m 126.74609,61.578125 q 2.15625,-3.875 5.15625,-5.71875 3,-1.84375 7.0625,-1.84375 5.46875,0 8.4375,3.84375 2.96875,3.8125 2.96875,10.875 v 21.125 h -5.78125 v -20.9375 q 0,-5.03125 -1.78125,-7.46875 -1.78125,-2.4375 -5.4375,-2.4375 -4.46875,0 -7.0625,2.96875 -2.59375,2.96875 -2.59375,8.09375 v 19.78125 h -5.78125 v -20.9375 q 0,-5.0625 -1.78125,-7.46875 -1.78125,-2.4375 -5.5,-2.4375 -4.40625,0 -7,3 -2.59375,2.96875 -2.59375,8.0625 v 19.78125 h -5.781246 v -35 h 5.781246 v 5.4375 q 1.96875,-3.21875 4.71875,-4.75 2.75,-1.53125 6.53125,-1.53125 3.8125,0 6.46875,1.9375 2.6875,1.9375 3.96875,5.625 z"
         style="font-style:normal;font-variant:normal;font-weight:normal;font-stretch:normal;font-size:64px;font-family:Calibri;-inkscape-font-specification:Calibri;fill:#333333"
         id="path3861"
         inkscape:connector-curvature="0" />
      <path
         d="m 162.12109,43.203125 h 6.3125 v 43.40625 q 0,8.4375 -3.21875,12.25 -3.1875,3.812505 -10.28125,3.812505 h -2.40625 v -5.312505 h 1.96875 q 4.1875,0 5.90625,-2.34375 1.71875,-2.34375 1.71875,-8.40625 z"
         style="font-style:normal;font-variant:normal;font-weight:normal;font-stretch:normal;font-size:64px;font-family:Calibri;-inkscape-font-specification:Calibri;fill:#333333"
         id="path3863"
         inkscape:connector-curvature="0" />
      <path
         d="m 180.15234,76.046875 v -21.1875 h 5.75 v 20.96875 q 0,4.96875 1.9375,7.46875 1.9375,2.46875 5.8125,2.46875 4.65625,0 7.34375,-2.96875 2.71875,-2.96875 2.71875,-8.09375 v -19.84375 h 5.75 v 35 h -5.75 v -5.375 q -2.09375,3.1875 -4.875,4.75 -2.75,1.53125 -6.40625,1.53125 -6.03125,0 -9.15625,-3.75 -3.125,-3.75 -3.125,-10.96875 z m 14.46875,-22.03125 z"
         style="font-style:normal;font-variant:normal;font-weight:normal;font-stretch:normal;font-size:64px;font-family:Calibri;-inkscape-font-specification:Calibri;fill:#333333"
         id="path3865"
         inkscape:connector-curvature="0" />
      <path
         d="m 250.46484,68.734375 v 21.125 h -5.75 v -20.9375 q 0,-4.96875 -1.9375,-7.4375 -1.9375,-2.46875 -5.8125,-2.46875 -4.65625,0 -7.34375,2.96875 -2.6875,2.96875 -2.6875,8.09375 v 19.78125 h -5.78125 v -35 h 5.78125 v 5.4375 q 2.0625,-3.15625 4.84375,-4.71875 2.8125,-1.5625 6.46875,-1.5625 6.03125,0 9.125,3.75 3.09375,3.71875 3.09375,10.96875 z"
         style="font-style:normal;font-variant:normal;font-weight:normal;font-stretch:normal;font-size:64px;font-family:Calibri;-inkscape-font-specification:Calibri;fill:#333333"
         id="path3867"
         inkscape:connector-curvature="0" />
      <path
         d="m 261.77734,41.234375 h 5.78125 v 28.71875 l 17.15625,-15.09375 h 7.34375 l -18.5625,16.375 19.34375,18.625 h -7.5 l -17.78125,-17.09375 v 17.09375 h -5.78125 z"
         style="font-style:normal;font-variant:normal;font-weight:normal;font-stretch:normal;font-size:64px;font-family:Calibri;-inkscape-font-specification:Calibri;fill:#333333"
         id="path3869"
         inkscape:connector-curvature="0" />
      <path
         d="m 299.12109,54.859375 h 5.75 v 35 h -5.75 z m 0,-13.625 h 5.75 v 7.28125 h -5.75 z"
         style="font-style:normal;font-variant:normal;font-weight:normal;font-stretch:normal;font-size:64px;font-family:Calibri;-inkscape-font-specification:Calibri;fill:#333333"
         id="path3871"
         inkscape:connector-curvature="0" />
      <path
         d="m 346.80859,70.921875 v 2.8125 h -26.4375 q 0.375,5.9375 3.5625,9.0625 3.21875,3.09375 8.9375,3.09375 3.3125,0 6.40625,-0.8125 3.125,-0.8125 6.1875,-2.4375 v 5.4375 q -3.09375,1.3125 -6.34375,2 -3.25,0.6875 -6.59375,0.6875 -8.375,0 -13.28125,-4.875 -4.875,-4.875 -4.875,-13.1875 0,-8.59375 4.625,-13.625 4.65625,-5.0625 12.53125,-5.0625 7.0625,0 11.15625,4.5625 4.125,4.53125 4.125,12.34375 z m -5.75,-1.6875 q -0.0625,-4.71875 -2.65625,-7.53125 -2.5625,-2.8125 -6.8125,-2.8125 -4.8125,0 -7.71875,2.71875 -2.875,2.71875 -3.3125,7.65625 z"
         style="font-style:normal;font-variant:normal;font-weight:normal;font-stretch:normal;font-size:64px;font-family:Calibri;-inkscape-font-specification:Calibri;fill:#333333"
         id="path3873"
         inkscape:connector-curvature="0" />
    </g>
  </g>
</svg>
